#!OML:ASF H:\MichaelJackson\Top Level 1\Subject 1\Session 1\male.ASF
:FULLY-SPECIFIED
:DEGREES
1068
root 2.73895 15.7503 28.9437 -174.651 170.124 182.289
lowerback -2.35585 -3.23109 2.16688
upperback 0.202985 -4.31305 -4.72814
thorax 1.00183 -2.1415 -6.23615
lowerneck -5.45649 -1.74975 5.23867
upperneck -0.518909 -2.70552 3.98872
head 0.725317 -1.30358 0.301668
rclavicle -5.36719e-015 -4.77083e-015
rhumerus 0.675233 -24.2593 1.36062
rradius 27.3578
rwrist -7.23514
rhand -33.4397 -47.2622
rfingers 7.12502
rthumb -6.63871 642.862
lclavicle -5.36719e-015 -4.77083e-015
lhumerus -56.0735 -39.4627 113.967
lradius 50.8385
lwrist 26.4903
lhand 35.1771 24.1115
lfingers 7.12502
lthumb 58.2913 39.5686
rfemur -26.2356 -7.22526 -2.3352
rtibia 46.6818
rfoot -19.2703 -1.5397
rtoes -33.1695
lfemur 2.29751 -11.3573 -0.287072
ltibia 13.747
lfoot -25.8446 3.29619
ltoes -27.1168
1069
root 2.74476 15.7536 28.9401 -174.666 170.138 182.269
lowerback -2.39865 -3.20444 2.17202
upperback 0.219043 -4.27691 -4.7328
thorax 1.04611 -2.12191 -6.24703
lowerneck -5.48001 -1.73563 5.24578
upperneck -0.530469 -2.68823 3.992
head 0.725715 -1.29497 0.301704
rclavicle -1.44119e-014 -2.22639e-014
rhumerus 0.602239 -24.17 1.35687
rradius 27.3694
rwrist -7.20604
rhand -33.4579 -47.155
rfingers 7.12502
rthumb -6.65622 642.97
lclavicle -1.44119e-014 -2.22639e-014
lhumerus -55.9486 -39.4002 113.867
lradius 50.8257
lwrist 26.4802
lhand 35.2474 24.2113
lfingers 7.12502
lthumb 58.3525 39.6122
rfemur -26.1629 -7.12061 -2.33267
rtibia 46.547
rfoot -19.2151 -1.61754
rtoes -33.1331
lfemur 2.29182 -11.3285 -0.287008
ltibia 13.769
lfoot -25.8446 3.23343
ltoes -27.0288
1070
root 2.75066 15.7567 28.9363 -174.686 170.161 182.25
lowerback -2.43706 -3.17674 2.17159
upperback 0.233836 -4.23923 -4.73686
thorax 1.08729 -2.10167 -6.25369
lowerneck -5.51171 -1.72185 5.25437
upperneck -0.512741 -2.67352 3.98953
head 0.73657 -1.28664 0.299386
rclavicle 1.78906e-014 -4.77083e-015
rhumerus 0.544354 -24.0647 1.34657
rradius 27.3867
rwrist -7.19289
rhand -33.4874 -47.0386
rfingers 7.12502
rthumb -6.68474 643.087
lclavicle 1.78906e-014 -4.77083e-015
lhumerus -55.823 -39.3444 113.78
lradius 50.808
lwrist 26.3972
lhand 35.3197 24.275
lfingers 7.12502
lthumb 58.4154 39.6178
rfemur -26.0898 -7.0156 -2.33557
rtibia 46.4136
rfoot -19.165 -1.68297
rtoes -33.106
lfemur 2.30047 -11.3134 -0.296309
ltibia 13.7873
lfoot -25.8455 3.19881
ltoes -26.9514
1071
root 2.75663 15.7593 28.9322 -174.712 170.19 182.239
lowerback -2.4639 -3.14909 2.16441
upperback 0.243894 -4.20154 -4.74362
thorax 1.11739 -2.08181 -6.25832
lowerneck -5.54585 -1.70854 5.26457
upperneck -0.468592 -2.66106 3.98516
head 0.756085 -1.27855 0.295968
rclavicle 4.9895e-014 2.8625e-014
rhumerus 0.501571 -23.9532 1.32702
rradius 27.4057
rwrist -7.18489
rhand -33.525 -46.9065
rfingers 7.12502
rthumb -6.72104 643.22
lclavicle 4.9895e-014 2.8625e-014
lhumerus -55.7117 -39.305 113.717
lradius 50.7824
lwrist 26.2487
lhand 35.3875 24.3001
lfingers 7.12502
lthumb 58.4742 39.5882
rfemur -26.0168 -6.91594 -2.34962
rtibia 46.2861
rfoot -19.118 -1.73294
rtoes -33.0985
lfemur 2.32279 -11.3099 -0.318601
ltibia 13.799
lfoot -25.8471 3.18738
ltoes -26.8872
1072
root 2.76263 15.7615 28.9279 -174.744 170.219 182.23
lowerback -2.47967 -3.12145 2.15407
upperback 0.250452 -4.16387 -4.74986
thorax 1.13793 -2.06228 -6.25966
lowerneck -5.5808 -1.69723 5.27821
upperneck -0.403645 -2.65251 3.97318
head 0.782115 -1.2718 0.289423
rclavicle 2.98177e-016 3.81667e-014
rhumerus 0.468268 -23.8433 1.30807
rradius 27.4229
rwrist -7.17222
rhand -33.5564 -46.7733
rfingers 7.12502
rthumb -6.75138 643.354
lclavicle 2.98177e-016 3.81667e-014
lhumerus -55.6241 -39.2951 113.688
lradius 50.7486
lwrist 26.0559
lhand 35.444 24.2759
lfingers 7.12502
lthumb 58.5233 39.5183
rfemur -25.9432 -6.82781 -2.36865
rtibia 46.1672
rfoot -19.0723 -1.76585
rtoes -33.099
lfemur 2.35596 -11.3131 -0.345359
ltibia 13.8031
lfoot -25.8496 3.18835
ltoes -26.8392
1073
root 2.76867 15.7634 28.9234 -174.781 170.243 182.224
lowerback -2.4848 -3.09556 2.14174
upperback 0.253364 -4.12861 -4.75516
thorax 1.14865 -2.04428 -6.25805
lowerneck -5.61172 -1.68719 5.29353
upperneck -0.327627 -2.64595 3.95605
head 0.810873 -1.2658 0.280947
rclavicle -1.03169e-013 -9.30312e-014
rhumerus 0.448795 -23.7606 1.28707
rradius 27.4298
rwrist -7.12424
rhand -33.5615 -46.6211
rfingers 7.12502
rthumb -6.75627 643.507
lclavicle -1.03169e-013 -9.30312e-014
lhumerus -55.5618 -39.3142 113.696
lradius 50.704
lwrist 25.8402
lhand 35.4982 24.2099
lfingers 7.12502
lthumb 58.5704 39.4082
rfemur -25.87 -6.75693 -2.3919
rtibia 46.0583
rfoot -19.0232 -1.77852
rtoes -33.1003
lfemur 2.39323 -11.3164 -0.373101
ltibia 13.8022
lfoot -25.8557 3.18629
ltoes -26.7992
1074
root 2.77476 15.7651 28.9186 -174.82 170.257 182.217
lowerback -2.48277 -3.07236 2.13113
upperback 0.253687 -4.09712 -4.75857
thorax 1.15222 -2.0284 -6.2549
lowerneck -5.63583 -1.67815 5.30769
upperneck -0.249765 -2.6402 3.93692
head 0.839076 -1.26025 0.272085
rclavicle -3.02153e-014 -1.59028e-014
rhumerus 0.436766 -23.7012 1.26799
rradius 27.4307
rwrist -7.05533
rhand -33.5504 -46.4733
rfingers 7.12502
rthumb -6.74552 643.654
lclavicle -3.02153e-014 -1.59028e-014
lhumerus -55.5235 -39.3648 113.736
lradius 50.6487
lwrist 25.6373
lhand 35.5497 24.1141
lfingers 7.12502
lthumb 58.615 39.2706
rfemur -25.7969 -6.70887 -2.41576
rtibia 45.9583
rfoot -18.969 -1.77232
rtoes -33.1004
lfemur 2.428 -11.3131 -0.396859
ltibia 13.7999
lfoot -25.865 3.16948
ltoes -26.7644
1075
root 2.78084 15.7668 28.9136 -174.861 170.258 182.206
lowerback -2.47617 -3.05389 2.12665
upperback 0.253008 -4.07225 -4.75817
thorax 1.15124 -2.01594 -6.25099
lowerneck -5.65989 -1.66924 5.31904
upperneck -0.171656 -2.63444 3.91723
head 0.867416 -1.2547 0.263508
rclavicle -2.6339e-014 -1.98785e-014
rhumerus 0.433162 -23.6673 1.25138
rradius 27.4239
rwrist -6.96215
rhand -33.5144 -46.3276
rfingers 7.12502
rthumb -6.71078 643.799
lclavicle -2.6339e-014 -1.98785e-014
lhumerus -55.5021 -39.4414 113.799
lradius 50.5868
lwrist 25.4786
lhand 35.6017 24.0144
lfingers 7.12502
lthumb 58.6601 39.1283
rfemur -25.7237 -6.68311 -2.43429
rtibia 45.8642
rfoot -18.9089 -1.74908
rtoes -33.0948
lfemur 2.45398 -11.3051 -0.410147
ltibia 13.8
lfoot -25.8771 3.13459
ltoes -26.7305
1076
root 2.78683 15.7687 28.9085 -174.902 170.247 182.187
lowerback -2.46595 -3.03919 2.13203
upperback 0.250277 -4.05285 -4.7555
thorax 1.1449 -2.00635 -6.25008
lowerneck -5.68153 -1.66208 5.3305
upperneck -0.0955458 -2.63073 3.89827
head 0.894744 -1.25027 0.255125
rclavicle 8.74653e-015 -3.18055e-015
rhumerus 0.431784 -23.6555 1.23637
rradius 27.4099
rwrist -6.84956
rhand -33.458 -46.1872
rfingers 7.12502
rthumb -6.65637 643.937
lclavicle 8.74653e-015 -3.18055e-015
lhumerus -55.4994 -39.5373 113.876
lradius 50.5236
lwrist 25.3838
lhand 35.6657 23.9432
lfingers 7.12502
lthumb 58.7156 39.0046
rfemur -25.6482 -6.6747 -2.44425
rtibia 45.7711
rfoot -18.8425 -1.7145
rtoes -33.0775
lfemur 2.46818 -11.2891 -0.40974
ltibia 13.8061
lfoot -25.8925 3.07928
ltoes -26.6959
1077
root 2.79266 15.7708 28.9032 -174.942 170.223 182.161
lowerback -2.45746 -3.02761 2.14495
upperback 0.247641 -4.03789 -4.7499
thorax 1.13878 -1.99895 -6.25059
lowerneck -5.70249 -1.65723 5.3415
upperneck -0.0249853 -2.62976 3.88075
head 0.92024 -1.24739 0.247238
rclavicle 1.25234e-014 5.56597e-015
rhumerus 0.430635 -23.6591 1.2243
rradius 27.3911
rwrist -6.73156
rhand -33.3956 -46.0595
rfingers 7.12502
rthumb -6.59613 644.063
lclavicle 1.25234e-014 5.56597e-015
lhumerus -55.5089 -39.6468 113.959
lradius 50.4656
lwrist 25.3636
lhand 35.7371 23.9177
lfingers 7.12502
lthumb 58.7774 38.9204
rfemur -25.5693 -6.67708 -2.44517
rtibia 45.6736
rfoot -18.7722 -1.67738
rtoes -33.0534
lfemur 2.46805 -11.2678 -0.3964
ltibia 13.8207
lfoot -25.9091 3.01026
ltoes -26.6657
1078
root 2.79829 15.7732 28.8979 -174.98 170.192 182.132
lowerback -2.45093 -3.02028 2.16051
upperback 0.24692 -4.02867 -4.742
thorax 1.13501 -1.99433 -6.25048
lowerneck -5.73207 -1.65224 5.34767
upperneck 0.0429931 -2.62888 3.86844
head 0.946562 -1.24447 0.241664
rclavicle -3.72224e-014 -1.82882e-014
rhumerus 0.434383 -23.6698 1.21231
rradius 27.3693
rwrist -6.61985
rhand -33.3299 -45.9537
rfingers 7.12502
rthumb -6.53266 644.167
lclavicle -3.72224e-014 -1.82882e-014
lhumerus -55.5185 -39.7573 114.034
lradius 50.4178
lwrist 25.4128
lhand 35.812 23.9415
lfingers 7.12502
lthumb 58.8423 38.8823
rfemur -25.4849 -6.68139 -2.44192
rtibia 45.5662
rfoot -18.6992 -1.64341
rtoes -33.0233
lfemur 2.45749 -11.2478 -0.377523
ltibia 13.842
lfoot -25.9238 2.93662
ltoes -26.6391
1079
root 2.80378 15.7759 28.8926 -175.016 170.156 182.1
lowerback -2.44856 -3.01509 2.1805
upperback 0.247735 -4.0224 -4.7343
thorax 1.13448 -1.99107 -6.2535
lowerneck -5.76546 -1.64801 5.3528
upperneck 0.10657 -2.6291 3.86187
head 0.972261 -1.24211 0.237994
rclavicle 2.16178e-014 1.98785e-014
rhumerus 0.437841 -23.6812 1.19978
rradius 27.3466
rwrist -6.52459
rhand -33.2745 -45.8749
rfingers 7.12502
rthumb -6.47924 644.244
lclavicle 2.16178e-014 1.98785e-014
lhumerus -55.5301 -39.8617 114.096
lradius 50.3858
lwrist 25.5093
lhand 35.8883 24.0045
lfingers 7.12502
lthumb 58.9083 38.882
rfemur -25.3928 -6.68044 -2.43516
rtibia 45.4447
rfoot -18.627 -1.61934
rtoes -32.9941
lfemur 2.44003 -11.234 -0.355606
ltibia 13.8669
lfoot -25.934 2.86748
ltoes -26.6145
1080
root 2.80908 15.779 28.8873 -175.049 170.122 182.068
lowerback -2.45003 -3.01112 2.19955
upperback 0.250284 -4.01769 -4.72579
thorax 1.13783 -1.98846 -6.25547
lowerneck -5.80324 -1.64231 5.35638
upperneck 0.166116 -2.62744 3.85802
head 0.99754 -1.23885 0.235439
rclavicle 5.29761e-014 3.49861e-014
rhumerus 0.442333 -23.6772 1.18856
rradius 27.3282
rwrist -6.47463
rhand -33.2459 -45.8475
rfingers 7.12502
rthumb -6.45161 644.271
lclavicle 5.29761e-014 3.49861e-014
lhumerus -55.5394 -39.9517 114.143
lradius 50.3695
lwrist 25.6295
lhand 35.9534 24.0806
lfingers 7.12502
lthumb 58.9646 38.9037
rfemur -25.2932 -6.66458 -2.42754
rtibia 45.3068
rfoot -18.5551 -1.61045
rtoes -32.962
lfemur 2.42177 -11.2311 -0.336169
ltibia 13.8917
lfoot -25.9364 2.81459
ltoes -26.5965
